<?xml version="1.0" encoding="UTF-8" standalone="no"?>
<!-- Created with FreeCAD (http://www.freecadweb.org) -->
<svg xmlns="http://www.w3.org/2000/svg"
     xmlns:xlink="http://www.w3.org/1999/xlink" xmlns:ev="http://www.w3.org/2001/xml-events"
     version="1.1" baseProfile="full"
     width="277" height="190">
<g>
</g>
<path
   d="M 10,10 L 267,10 L 267,180 L 10,180 L 10,10 z "
   style="fill:#ffffff;fill-opacity:1;fill-rule:evenodd;stroke:none;stroke-width:1px;stroke-linecap:butt;stroke-linejoin:miter;stroke-opacity:1" />
<g>
<path d="M 173.879,122.375 L 174.133,122.375 173.879,122.527 z"
    style="fill:#ff300a; stroke:#ff300a;
    stroke-width:1.0;
    stroke-linecap:round;stroke-linejoin:round"/>
<path d="M 174.133,122.375 L 174.133,122.527 173.879,122.527 z"
    style="fill:#ff300a; stroke:#ff300a;
    stroke-width:1.0;
    stroke-linecap:round;stroke-linejoin:round"/>
<line x1="163.516" y1="106.067" x2="176.763" y2="141.71" stroke="#1cad1c" stroke-width="1px" />
<line x1="143.131" y1="141.939" x2="176.763" y2="141.71" stroke="#1cad1c" stroke-width="1px" />
<path d="M 159.851,137.632 L 159.987,137.632 159.851,137.767 z"
    style="fill:#ff300a; stroke:#ff300a;
    stroke-width:1.0;
    stroke-linecap:round;stroke-linejoin:round"/>
<path d="M 159.987,137.632 L 159.987,137.767 159.851,137.767 z"
    style="fill:#ff300a; stroke:#ff300a;
    stroke-width:1.0;
    stroke-linecap:round;stroke-linejoin:round"/>
<line x1="163.516" y1="106.067" x2="168.592" y2="97.1362" stroke="#1cad1c" stroke-width="1px" />
<line x1="176.763" y1="141.71" x2="159.3" y2="46.4493" stroke="#1cad1c" stroke-width="1px" />
<path d="M 162.342,99.4876 L 162.595,99.4876 162.342,99.6397 z"
    style="fill:#ff300a; stroke:#ff300a;
    stroke-width:1.0;
    stroke-linecap:round;stroke-linejoin:round"/>
<path d="M 162.595,99.4876 L 162.595,99.6398 162.342,99.6397 z"
    style="fill:#ff300a; stroke:#ff300a;
    stroke-width:1.0;
    stroke-linecap:round;stroke-linejoin:round"/>
<line x1="143.131" y1="141.939" x2="163.516" y2="106.067" stroke="#1cad1c" stroke-width="1px" />
<line x1="142.808" y1="142.595" x2="144.771" y2="142.582" stroke="#b3b3b3" stroke-width="1px" />
<line x1="142.806" y1="142.268" x2="144.769" y2="142.255" stroke="#b3b3b3" stroke-width="1px" />
<line x1="144.444" y1="142.584" x2="144.413" y2="138.004" stroke="#b3b3b3" stroke-width="1px" />
<line x1="142.804" y1="141.941" x2="144.766" y2="141.928" stroke="#b3b3b3" stroke-width="1px" />
<line x1="142.941" y1="141.94" x2="144.535" y2="141.929" stroke="#cc6666" stroke-width="1px" />
<line x1="142.801" y1="141.614" x2="144.764" y2="141.6" stroke="#b3b3b3" stroke-width="1px" />
<line x1="142.799" y1="141.287" x2="144.762" y2="141.273" stroke="#b3b3b3" stroke-width="1px" />
<line x1="144.117" y1="142.586" x2="144.086" y2="138.006" stroke="#b3b3b3" stroke-width="1px" />
<line x1="142.797" y1="140.959" x2="144.76" y2="140.946" stroke="#b3b3b3" stroke-width="1px" />
<line x1="142.795" y1="140.632" x2="144.758" y2="140.619" stroke="#b3b3b3" stroke-width="1px" />
<line x1="153.684" y1="79.6124" x2="168.592" y2="97.1362" stroke="#1cad1c" stroke-width="1px" />
<line x1="142.792" y1="140.305" x2="144.755" y2="140.292" stroke="#b3b3b3" stroke-width="1px" />
<line x1="143.789" y1="142.589" x2="143.758" y2="138.008" stroke="#b3b3b3" stroke-width="1px" />
<line x1="142.79" y1="139.978" x2="144.753" y2="139.965" stroke="#b3b3b3" stroke-width="1px" />
<path d="M 149.611,121.889 L 149.865,121.889 149.611,122.041 z"
    style="fill:#ff300a; stroke:#ff300a;
    stroke-width:1.0;
    stroke-linecap:round;stroke-linejoin:round"/>
<path d="M 149.865,121.889 L 149.865,122.041 149.611,122.041 z"
    style="fill:#ff300a; stroke:#ff300a;
    stroke-width:1.0;
    stroke-linecap:round;stroke-linejoin:round"/>
<line x1="142.788" y1="139.651" x2="144.751" y2="139.637" stroke="#b3b3b3" stroke-width="1px" />
<line x1="143.462" y1="142.591" x2="143.431" y2="138.011" stroke="#b3b3b3" stroke-width="1px" />
<line x1="142.786" y1="139.324" x2="144.749" y2="139.31" stroke="#b3b3b3" stroke-width="1px" />
<line x1="142.784" y1="138.996" x2="144.746" y2="138.983" stroke="#b3b3b3" stroke-width="1px" />
<line x1="142.781" y1="138.669" x2="144.744" y2="138.656" stroke="#b3b3b3" stroke-width="1px" />
<line x1="143.135" y1="142.593" x2="143.104" y2="138.013" stroke="#b3b3b3" stroke-width="1px" />
<line x1="143.134" y1="142.455" x2="143.105" y2="138.122" stroke="#66cc66" stroke-width="1px" />
<line x1="142.779" y1="138.342" x2="144.742" y2="138.329" stroke="#b3b3b3" stroke-width="1px" />
<line x1="142.808" y1="142.595" x2="142.777" y2="138.015" stroke="#b3b3b3" stroke-width="1px" />
<line x1="163.516" y1="106.067" x2="153.684" y2="79.6124" stroke="#1cad1c" stroke-width="1px" />
<path d="M 154.607,94.2008 L 154.861,94.2008 154.607,94.353 z"
    style="fill:#ff300a; stroke:#ff300a;
    stroke-width:1.0;
    stroke-linecap:round;stroke-linejoin:round"/>
<path d="M 154.861,94.2008 L 154.861,94.353 154.607,94.353 z"
    style="fill:#ff300a; stroke:#ff300a;
    stroke-width:1.0;
    stroke-linecap:round;stroke-linejoin:round"/>
<path d="M 157.683,80.2333 L 157.819,80.2333 157.683,80.3686 z"
    style="fill:#ff300a; stroke:#ff300a;
    stroke-width:1.0;
    stroke-linecap:round;stroke-linejoin:round"/>
<path d="M 157.819,80.2333 L 157.819,80.3686 157.683,80.3686 z"
    style="fill:#ff300a; stroke:#ff300a;
    stroke-width:1.0;
    stroke-linecap:round;stroke-linejoin:round"/>
<line x1="159.3" y1="46.4493" x2="143.131" y2="141.939" stroke="#1cad1c" stroke-width="1px" />
<path d="M 159.527,137.432 L 148.208,128.175 148.272,137.509 z"
    style="fill:#d67070; stroke:#d67070;
    stroke-width:1.0;
    stroke-linecap:round;stroke-linejoin:round"/>
<path d="M 159.463,128.099 L 159.527,137.432 148.272,137.509 z"
    style="fill:#d67070; stroke:#d67070;
    stroke-width:1.0;
    stroke-linecap:round;stroke-linejoin:round"/>
<path d="M 172.426,138.065 L 161.108,128.808 161.172,138.142 z"
    style="fill:#d67070; stroke:#d67070;
    stroke-width:1.0;
    stroke-linecap:round;stroke-linejoin:round"/>
<path d="M 172.363,128.731 L 172.426,138.065 161.172,138.142 z"
    style="fill:#d67070; stroke:#d67070;
    stroke-width:1.0;
    stroke-linecap:round;stroke-linejoin:round"/>
<path d="M 165.09,70.4643 L 153.772,61.2072 153.835,70.541 z"
    style="fill:#d67070; stroke:#d67070;
    stroke-width:1.0;
    stroke-linecap:round;stroke-linejoin:round"/>
<path d="M 165.027,61.1305 L 165.09,70.4643 153.835,70.541 z"
    style="fill:#d67070; stroke:#d67070;
    stroke-width:1.0;
    stroke-linecap:round;stroke-linejoin:round"/>
<path d="M 153.504,143.803 L 142.185,134.546 142.249,143.879 z"
    style="fill:#d67070; stroke:#d67070;
    stroke-width:1.0;
    stroke-linecap:round;stroke-linejoin:round"/>
<path d="M 153.44,134.469 L 153.504,143.803 142.249,143.879 z"
    style="fill:#d67070; stroke:#d67070;
    stroke-width:1.0;
    stroke-linecap:round;stroke-linejoin:round"/>
<path d="M 180.308,144.879 L 168.99,135.622 169.053,144.956 z"
    style="fill:#d67070; stroke:#d67070;
    stroke-width:1.0;
    stroke-linecap:round;stroke-linejoin:round"/>
<path d="M 180.245,135.545 L 180.308,144.879 169.053,144.956 z"
    style="fill:#d67070; stroke:#d67070;
    stroke-width:1.0;
    stroke-linecap:round;stroke-linejoin:round"/>
<path d="M 165.823,110.281 L 151.21,101.047 151.274,110.38 z"
    style="fill:#d67070; stroke:#d67070;
    stroke-width:1.0;
    stroke-linecap:round;stroke-linejoin:round"/>
<path d="M 165.759,100.948 L 165.823,110.281 151.274,110.38 z"
    style="fill:#d67070; stroke:#d67070;
    stroke-width:1.0;
    stroke-linecap:round;stroke-linejoin:round"/>
<path d="M 168.405,99.6936 L 157.087,90.4366 157.15,99.7703 z"
    style="fill:#d67070; stroke:#d67070;
    stroke-width:1.0;
    stroke-linecap:round;stroke-linejoin:round"/>
<path d="M 168.342,90.3599 L 168.405,99.6936 157.15,99.7703 z"
    style="fill:#d67070; stroke:#d67070;
    stroke-width:1.0;
    stroke-linecap:round;stroke-linejoin:round"/>
<path d="M 161.2,103.92 L 149.881,94.6633 149.945,103.997 z"
    style="fill:#d67070; stroke:#d67070;
    stroke-width:1.0;
    stroke-linecap:round;stroke-linejoin:round"/>
<path d="M 161.136,94.5866 L 161.2,103.92 149.945,103.997 z"
    style="fill:#d67070; stroke:#d67070;
    stroke-width:1.0;
    stroke-linecap:round;stroke-linejoin:round"/>
<path d="M 168.53,118.695 L 157.212,109.438 157.276,118.772 z"
    style="fill:#d67070; stroke:#d67070;
    stroke-width:1.0;
    stroke-linecap:round;stroke-linejoin:round"/>
<path d="M 168.467,109.361 L 168.53,118.695 157.276,118.772 z"
    style="fill:#d67070; stroke:#d67070;
    stroke-width:1.0;
    stroke-linecap:round;stroke-linejoin:round"/>
</g>
</svg>